<svg width="245" height="71" viewBox="0 0 245 71" fill="none" xmlns="http://www.w3.org/2000/svg">
<mask id="mask0_2715_2951" style="mask-type:luminance" maskUnits="userSpaceOnUse" x="6" y="10" width="78" height="50">
<path d="M6.75562 10.9231H83.3181V59.8331H6.75562V10.9231Z" fill="white"/>
</mask>
<g mask="url(#mask0_2715_2951)">
<path d="M80.617 40.1492L49.9631 41.4027C48.6784 41.4014 47.9991 41.1074 47.4188 40.6565C47.1657 40.4598 46.9312 40.2331 46.6711 39.9816C46.6278 39.9398 46.5838 39.8973 46.5389 39.8541C46.2256 39.5527 45.8721 39.2237 45.4168 38.8858L45.4167 38.8857C43.3111 37.3246 39.7339 35.5329 35.3938 35.5329C33.1769 35.5329 30.0819 35.9797 27.5372 37.1481C24.9931 38.3163 22.9741 40.2196 22.9741 43.139C22.9741 46.0047 24.9359 47.9082 27.4523 49.0899C29.9691 50.2719 33.0644 50.7452 35.3938 50.7452C37.3705 50.7452 39.664 50.2677 41.7684 49.431C43.872 48.5947 45.7962 47.3956 47.027 45.9454M80.617 40.1492L82.7241 45.259L82.8237 45.2494C83.0952 48.0651 83.3036 53.6186 82.5081 57.556L82.5081 57.5563C82.4657 57.7621 82.3544 57.9073 82.209 57.9906C82.0659 58.0727 81.8968 58.0909 81.7417 58.0582C81.5865 58.0255 81.4389 57.9405 81.3403 57.8077C81.2402 57.6729 81.1953 57.4951 81.2376 57.2894C81.6499 55.2771 81.7738 52.8594 81.7739 50.7318L81.774 50.734L81.8739 50.7294M80.617 40.1492C76.5574 24.0461 62.1134 12.1284 44.9128 12.1349C23.6348 12.1349 6.77356 30.2956 8.14611 51.7965L45.2413 53.192L45.2421 53.192C45.867 53.2205 46.4872 53.0005 47.1244 52.6458C47.6851 52.3336 48.2501 51.9225 48.8369 51.4955C48.9178 51.4367 48.9992 51.3775 49.081 51.3182C50.4215 50.3469 51.8832 49.353 53.5861 49.4292L53.5871 49.4293L70.741 50.3554L70.7413 50.3554C70.9492 50.3673 71.1076 50.4574 71.2105 50.5897C71.3117 50.72 71.3547 50.8854 71.3463 51.0445C71.3378 51.2036 71.2776 51.3635 71.1629 51.4822C71.0464 51.6028 70.879 51.6753 70.6707 51.6648L70.6704 51.6647L53.5319 50.7344L53.4354 50.7344C53.4352 50.7344 53.4351 50.7344 53.435 50.7344C52.6789 50.7429 51.8288 51.0988 51.0158 51.574C50.2051 52.0479 49.4445 52.6324 48.8689 53.0835L48.8688 53.0836C47.8807 53.8569 47.1397 54.2198 46.3613 54.3752C45.6659 54.5141 44.9449 54.4859 44.006 54.4491C43.9018 54.445 43.7949 54.4408 43.685 54.4367L9.10159 53.1393L9.10148 53.1393C8.8562 53.1298 8.63237 53.1266 8.42828 53.1238C8.35442 53.1227 8.28314 53.1217 8.21437 53.1205C7.95767 53.1158 7.734 53.1076 7.54958 53.0797C7.36623 53.0519 7.20788 53.0027 7.09165 52.9058C6.97097 52.8051 6.9083 52.664 6.89502 52.4813M80.617 40.1492L6.89502 52.4813M47.027 45.9454C47.027 45.9455 47.0269 45.9456 47.0269 45.9456L46.9508 45.8807L47.027 45.9454ZM47.027 45.9454C47.3764 45.5359 47.8926 45.2674 48.4366 45.1015C48.979 44.9362 49.5402 44.8756 49.9697 44.8754M49.9697 44.8754L49.9735 44.8756L49.9901 44.8761L50.0556 44.8784L50.3113 44.8873L51.2834 44.9209L54.7654 45.0413C57.6542 45.1411 61.5233 45.2746 65.4442 45.4094C72.3324 45.6462 79.3819 45.887 81.5568 45.9559M49.9697 44.8754C49.9703 44.8754 49.9709 44.8754 49.9714 44.8754V44.7754M49.9697 44.8754L49.9694 44.8754L49.9683 44.8754C49.9681 44.8754 49.968 44.8754 49.9714 44.7754M81.5568 45.9559L81.7739 50.7294H81.8739M81.5568 45.9559C81.5914 45.957 81.6248 45.9581 81.657 45.9591M81.5568 45.9559L81.5522 45.8557C76.882 45.7076 49.9714 44.7754 49.9714 44.7754M81.8739 50.7294C81.8739 52.8602 81.75 55.2867 81.3356 57.3095C81.1882 58.0262 82.2627 58.2529 82.4101 57.5362L81.657 45.9591M81.8739 50.7294L81.657 45.9591M6.89502 52.4813C5.11765 30.0138 22.6473 10.8231 44.9128 10.8231C62.995 10.8231 78.1371 23.5418 82.0652 40.6096L6.89502 52.4813ZM81.657 45.9591L49.9714 44.7754M8.04541 57.6555L8.04507 57.6555C7.68744 57.6683 7.38841 57.3844 7.37334 57.0266L7.37331 57.0257C7.36678 56.8283 7.41796 56.6737 7.52877 56.5607C7.63636 56.4511 7.7878 56.3936 7.95511 56.361C8.12314 56.3283 8.32021 56.3185 8.53048 56.3143C8.60992 56.3127 8.69084 56.3119 8.77345 56.3111C8.91328 56.3097 9.05795 56.3083 9.20841 56.3028C9.20846 56.3028 9.2085 56.3028 9.20855 56.3028L43.3132 54.9709L43.3133 54.9709C44.3908 54.9298 45.0681 54.8997 45.1602 54.8933L45.1605 54.8933C46.745 54.7891 48.1035 55.7451 49.4102 56.7015C49.4593 56.7375 49.5084 56.7734 49.5574 56.8094C50.165 57.2548 50.7642 57.6942 51.38 58.0336C52.0442 58.3998 52.7202 58.6453 53.4352 58.6559H53.5319L70.6703 57.7234L70.6707 57.7234C70.879 57.7128 71.0464 57.7853 71.1629 57.9058C71.2775 58.0245 71.3378 58.1842 71.3463 58.3431C71.3547 58.502 71.3117 58.667 71.2103 58.7968C71.1073 58.9286 70.9488 59.0178 70.741 59.0284L70.7407 59.0285M8.04541 57.6555L70.7356 58.9286L70.7407 59.0285M8.04541 57.6555L45.2415 56.1983L45.2424 56.1983C45.8656 56.1683 46.4851 56.387 47.1224 56.7409C47.6843 57.053 48.251 57.4648 48.8398 57.8926C48.9195 57.9505 48.9996 58.0087 49.0802 58.067C50.422 59.038 51.8853 60.033 53.586 59.9589L53.5871 59.9589L70.7407 59.0285M8.04541 57.6555L70.7407 59.0285M82.1922 44.7646L82.1956 44.6647L82.1947 44.6647C82.1944 44.6647 82.1941 44.6646 82.1938 44.6646L82.1922 44.7646ZM81.45 41.4235C81.4505 41.4235 81.451 41.4235 81.4515 41.4235L81.4529 41.4234L81.4488 41.3235L81.45 41.4235ZM51.298 42.6539L51.2938 42.554L51.2978 42.6539L51.298 42.6539ZM51.3272 43.6133L51.3271 43.6133L51.3237 43.7133L51.3272 43.6133ZM45.6532 42.3556L45.6531 42.3554C43.6929 39.9108 39.5234 37.3182 35.0328 37.3182C33.4976 37.3182 31.8237 37.5902 30.0458 38.2637C29.8515 38.3361 29.7271 38.4687 29.6681 38.6251C29.6099 38.7791 29.6175 38.9495 29.6723 39.0988C29.7271 39.248 29.8316 39.3827 29.9761 39.462C30.123 39.5425 30.3042 39.5617 30.5001 39.4895L30.5007 39.4893C35.8286 37.4868 41.1395 39.2567 44.4901 42.9985C44.709 43.2432 44.9177 43.3734 45.1091 43.4091C45.3054 43.4457 45.4708 43.3804 45.5878 43.2627C45.7021 43.1477 45.7682 42.9855 45.7824 42.8237C45.7966 42.6616 45.7596 42.4889 45.6532 42.3556ZM66.4281 34.1033L66.4283 34.1036C66.5479 34.2737 66.7073 34.3606 66.8732 34.3776C67.0365 34.3943 67.1984 34.3428 67.3275 34.2509C67.4567 34.1591 67.5588 34.023 67.5975 33.8629C67.6368 33.7004 67.6088 33.5205 67.4894 33.35C62.5498 26.2544 54.3787 21.615 45.1371 21.615C30.2798 21.615 18.1882 33.6084 17.8259 48.5358L17.8258 48.5368C17.8228 48.7458 17.8999 48.9118 18.0229 49.0255C18.1442 49.1376 18.3046 49.1942 18.463 49.1981C18.6215 49.202 18.7843 49.1534 18.9101 49.0464C19.0378 48.9379 19.121 48.7748 19.126 48.5644C19.4665 34.3457 30.9887 22.9246 45.1371 22.9246C53.9425 22.9246 61.7183 27.3393 66.4281 34.1033ZM67.8942 36.4579L67.8944 36.4583C68.3478 37.2799 68.7541 38.1184 69.1114 38.9868L69.1119 38.988C69.1937 39.18 69.3315 39.2993 69.4902 39.3518C69.6465 39.4035 69.8157 39.3881 69.9614 39.326C70.1071 39.2639 70.2355 39.1524 70.3065 39.0037C70.3786 38.8529 70.3881 38.6708 70.3067 38.4785C69.9272 37.5686 69.5006 36.6825 69.0333 35.8246L69.0329 35.824C68.931 35.6404 68.7814 35.5353 68.6178 35.4994C68.4567 35.4639 68.2898 35.4972 68.1513 35.5747C68.0128 35.6523 67.8969 35.7773 67.8415 35.9331C67.7854 36.0912 67.7941 36.2741 67.8942 36.4579ZM19.2033 15.9956H18.1228C18.1244 15.8878 18.1285 15.7802 18.1324 15.6743C18.1339 15.6349 18.1353 15.5958 18.1367 15.557C18.1426 15.3833 18.1459 15.215 18.1339 15.0685C18.1221 14.9242 18.0945 14.7869 18.0288 14.6837C17.9577 14.572 17.847 14.5082 17.6973 14.5082C17.5482 14.5082 17.4382 14.5724 17.3679 14.6841C17.3029 14.7873 17.2759 14.9245 17.2643 15.0687C17.2526 15.2151 17.2561 15.3833 17.2621 15.557C17.2634 15.595 17.2648 15.6332 17.2663 15.6717C17.2702 15.7781 17.2743 15.8863 17.276 15.9946C17.1773 15.9928 17.0786 15.9887 16.9811 15.9846C16.9463 15.9832 16.9116 15.9817 16.8771 15.9804C16.7153 15.9741 16.5574 15.9703 16.4194 15.9819C16.2835 15.9934 16.1526 16.0207 16.0538 16.0874C15.947 16.1594 15.8883 16.2701 15.8883 16.4173C15.8883 16.5644 15.9469 16.6752 16.0533 16.7479C16.152 16.8152 16.2828 16.8435 16.4188 16.8558C16.5568 16.8683 16.7148 16.8653 16.8768 16.8597C16.9152 16.8583 16.954 16.8568 16.9929 16.8553C17.0866 16.8517 17.1813 16.848 17.276 16.8463C17.2743 16.9538 17.2703 17.0612 17.2663 17.167C17.2648 17.2056 17.2634 17.2441 17.2621 17.2822C17.2561 17.4557 17.2526 17.624 17.2643 17.7707C17.2759 17.9152 17.3029 18.0527 17.3678 18.1561C17.438 18.2682 17.5479 18.3328 17.6973 18.3328C17.8472 18.3328 17.9579 18.2685 18.0289 18.1566C18.0946 18.0531 18.1221 17.9155 18.1339 17.7709C18.1459 17.6241 18.1426 17.4558 18.1367 17.2822C18.1353 17.2432 18.1339 17.2039 18.1324 17.1644C18.1285 17.0594 18.1245 16.9528 18.1228 16.8462C18.2332 16.848 18.3433 16.8522 18.4517 16.8563C18.4905 16.8578 18.5291 16.8592 18.5674 16.8606C18.7433 16.8667 18.9136 16.8703 19.0618 16.8583C19.2078 16.8465 19.3466 16.8188 19.4509 16.7523C19.5637 16.6805 19.628 16.5686 19.628 16.4173C19.628 16.1813 19.4342 15.9956 19.2033 15.9956ZM82.1815 28.1001H81.0989C81.1006 27.9922 81.1047 27.8844 81.1088 27.7782C81.1102 27.7397 81.1117 27.7014 81.113 27.6633C81.1191 27.4898 81.1227 27.3214 81.1108 27.1747C81.0991 27.0301 81.0717 26.8924 81.0059 26.7888C80.9347 26.6768 80.8236 26.6126 80.6733 26.6126C80.5234 26.6126 80.4127 26.6769 80.3417 26.7889C80.276 26.8924 80.2485 27.03 80.2367 27.1746C80.2247 27.3213 80.228 27.4897 80.2339 27.6632C80.2353 27.7023 80.2367 27.7415 80.2382 27.781C80.2421 27.8861 80.2461 27.9926 80.2478 28.0991C80.1531 28.0975 80.0584 28.0938 79.9647 28.0902C79.9258 28.0887 79.8871 28.0872 79.8486 28.0858C79.6866 28.0802 79.5286 28.0772 79.3906 28.0897C79.2546 28.102 79.1238 28.1303 79.0252 28.1976C78.9187 28.2703 78.8601 28.3811 78.8601 28.5282C78.8601 28.6743 78.9193 28.784 79.0258 28.8555C79.1244 28.9216 79.2551 28.9492 79.3909 28.9611C79.5288 28.9732 79.6867 28.97 79.8486 28.9642C79.8859 28.9629 79.9234 28.9614 79.961 28.9599C80.0559 28.9562 80.1518 28.9525 80.2478 28.9508C80.2461 29.0583 80.2421 29.1656 80.2382 29.2712C80.2367 29.3106 80.2353 29.3497 80.2339 29.3885C80.228 29.5622 80.2247 29.7305 80.2367 29.877C80.2485 30.0213 80.2761 30.1586 80.3418 30.2618C80.4129 30.3735 80.5236 30.4373 80.6733 30.4373C80.8234 30.4373 80.9345 30.3737 81.0058 30.2619C81.0717 30.1586 81.0991 30.0212 81.1108 29.8769C81.1227 29.7304 81.1191 29.5621 81.113 29.3884C81.1117 29.3506 81.1103 29.3125 81.1088 29.2741C81.1047 29.1675 81.1006 29.0592 81.0989 28.9507C81.2116 28.9526 81.3242 28.9571 81.435 28.9616C81.4705 28.963 81.5057 28.9644 81.5408 28.9657C81.716 28.9723 81.8858 28.9765 82.0337 28.9652C82.1794 28.9541 82.318 28.9273 82.4223 28.8617C82.5353 28.7906 82.5998 28.6793 82.5998 28.5282C82.5998 28.2974 82.4176 28.1001 82.1815 28.1001ZM53.0796 56.6453H70.5519C70.76 56.6453 70.9229 56.564 71.0325 56.4373C71.1403 56.3127 71.1918 56.1497 71.1918 55.9904C71.1918 55.8312 71.1403 55.6682 71.0325 55.5436C70.9229 55.4169 70.76 55.3356 70.5519 55.3356H53.0796C52.8711 55.3356 52.7079 55.4168 52.598 55.5435C52.4898 55.6681 52.4381 55.8311 52.4381 55.9904C52.4381 56.1498 52.4898 56.3128 52.598 56.4374C52.7079 56.5641 52.8711 56.6453 53.0796 56.6453ZM53.0796 54.0547H70.5519C70.76 54.0547 70.923 53.9732 71.0325 53.8463C71.1403 53.7215 71.1918 53.5583 71.1918 53.3988C71.1918 53.2393 71.1403 53.0761 71.0325 52.9513C70.923 52.8244 70.76 52.7429 70.5519 52.7429H53.0796C52.8711 52.7429 52.7078 52.8243 52.5979 52.9512C52.4898 53.076 52.4381 53.2392 52.4381 53.3988C52.4381 53.5584 52.4898 53.7216 52.5979 53.8464C52.7078 53.9733 52.8711 54.0547 53.0796 54.0547Z" fill="#828282" stroke="#828282" stroke-width="0.2"/>
</g>
<path d="M100.194 26.6702H106.839V44.8792H100.194V42.6266H104.819V28.9228H100.194V26.6702ZM99.0811 26.6702H101.101V47.3509H99.0811V26.6702ZM111.172 28.61H124.523V30.8314H111.172V28.61ZM110.528 35.0864H121.039V37.2765H110.528V35.0864ZM112.402 23.7918L114.598 24.3237C113.368 28.7977 111.377 33.0214 109.123 35.7747C108.713 35.368 107.835 34.5858 107.308 34.2416C109.562 31.7387 111.377 27.8278 112.402 23.7918ZM120.717 35.0864H121.068L121.595 34.9925L123.088 35.8686C123 36.025 122.883 36.1814 122.737 36.3379C111.729 45.943 110.967 47.5699 110.967 48.6024C110.967 49.4471 111.816 49.7913 113.134 49.7913H121.419C122.678 49.7913 123 49.2281 123.117 45.0982C123.703 45.4424 124.493 45.7553 125.137 45.8804C124.845 51.2305 123.937 52.1065 121.302 52.1065H113.222C110.089 52.1065 108.684 50.9176 108.684 48.9152C108.684 47.257 109.182 45.2547 120.717 35.0864Z" fill="#333333"/>
<path d="M143.962 23.6666L145.924 24.4801C143.64 27.3898 140.069 30.0805 136.936 31.77C136.585 31.3632 135.794 30.4872 135.296 30.1118C138.517 28.61 141.913 26.2322 143.962 23.6666ZM158.571 24.9494L160.211 26.4825C157.313 27.6714 153.009 28.6413 149.291 29.267C149.203 28.7977 148.939 28.0781 148.676 27.6401C152.248 26.9518 156.317 25.9506 158.571 24.9494ZM147.973 24.0734H150.081V30.5498C150.081 31.4258 150.374 31.6135 152.131 31.6135C152.95 31.6135 157.195 31.6135 158.308 31.6135C159.625 31.6135 159.86 31.2381 159.977 28.9228C160.474 29.267 161.323 29.5799 161.909 29.705C161.645 32.8024 160.972 33.5846 158.484 33.5846C157.752 33.5846 152.716 33.5846 152.013 33.5846C148.793 33.5846 147.973 32.9902 147.973 30.5498V24.0734ZM141.737 40.1549V42.2824H156.493V40.1549H141.737ZM141.737 43.8155V46.0056H156.493V43.8155H141.737ZM141.737 36.4943V38.6218H156.493V36.4943H141.737ZM139.6 34.9299H158.689V47.5699H139.6V34.9299ZM151.399 49.1655L153.184 47.9766C156.405 49.0404 159.947 50.417 162.055 51.4808L159.625 52.6697C157.781 51.6372 154.59 50.2919 151.399 49.1655ZM144.519 47.9141L146.509 48.884C144.138 50.3857 140.42 51.8249 137.492 52.701C137.141 52.2317 136.38 51.3243 135.882 50.9176C138.897 50.2293 142.411 49.1343 144.519 47.9141ZM140.976 27.9842L142.528 26.3573L143.084 26.545V34.0226H140.976V27.9842Z" fill="#333333"/>
<path d="M187.526 33.2092H193.616V35.0551H187.526V33.2092ZM185.652 42.2824H195.519V43.9719H185.652V42.2824ZM175.845 25.1371H184.042V27.0456H175.845V25.1371ZM183.427 25.1371H183.808L184.189 25.0433L185.565 25.7629C183.369 31.0191 178.538 34.5232 173.795 36.2753C173.532 35.7434 173.005 34.9299 172.595 34.5232C176.986 33.1153 181.641 29.7676 183.427 25.5126V25.1371ZM188.053 23.7918C190.161 28.6413 194.611 32.4583 200.057 33.9913C199.588 34.4606 199.032 35.2741 198.71 35.8373C193.118 33.9913 188.639 29.8615 186.267 24.3862L188.053 23.7918ZM194.026 24.0108L195.665 25.231C194.23 26.6702 192.386 28.172 190.981 29.2044L189.693 28.1094C191.039 27.0456 192.972 25.2936 194.026 24.0108ZM197.539 27.1708L199.149 28.3597C197.744 29.7989 195.841 31.3007 194.406 32.2706L193.059 31.1755C194.465 30.143 196.456 28.391 197.539 27.1708ZM176.752 33.3343H183.925V40.8432H181.964V35.1802H176.752V33.3343ZM175.991 38.4654H177.894C177.484 40.9058 176.899 43.9719 176.43 45.9117L174.586 45.5675C175.083 43.6903 175.669 40.7493 175.991 38.4654ZM181.964 43.221H183.984C183.984 43.221 183.954 43.878 183.925 44.1596C183.544 48.9152 183.164 50.9176 182.403 51.7311C181.876 52.263 181.349 52.4194 180.441 52.5132C179.68 52.5445 178.128 52.5133 176.518 52.4507C176.459 51.8249 176.225 50.9802 175.874 50.417C177.513 50.5735 179.094 50.6047 179.651 50.6047C180.207 50.6047 180.529 50.5735 180.763 50.3232C181.29 49.7913 181.612 48.0079 181.964 43.5339V43.221ZM186.736 33.2092H188.639V35.6808C188.639 37.7145 188.024 40.061 185.418 41.6879C185.125 41.2499 184.423 40.499 184.013 40.2175C186.355 38.8721 186.736 37.1513 186.736 35.6496V33.2092ZM195.021 42.2824H195.402L195.753 42.1885L197.012 42.6891C195.08 48.5085 190.483 51.2931 184.95 52.6071C184.774 52.1065 184.335 51.3243 183.984 50.8863C189.019 49.8851 193.411 47.3196 195.021 42.5953V42.2824ZM188.434 43.8467C190.132 47.476 194.055 49.8539 199.237 50.636C198.768 51.1053 198.212 52.0127 197.919 52.5758C192.562 51.5121 188.639 48.7275 186.706 44.3473L188.434 43.8467ZM176.957 38.4654H182.695V40.3113H176.664L176.957 38.4654ZM176.079 43.221H182.52V45.0357H175.757L176.079 43.221ZM192.591 33.2092H194.523V38.0899C194.523 38.528 194.523 38.8408 194.64 38.9347C194.757 39.0285 194.904 39.0285 195.138 39.0285C195.343 39.0285 195.724 39.0285 195.987 39.0285C196.251 39.0285 196.543 39.0285 196.631 38.9973C196.748 38.9347 196.895 38.7783 196.982 38.5592C197.041 38.2777 197.07 37.6832 197.1 36.901C197.48 37.2452 198.183 37.6206 198.71 37.7771C198.651 38.5905 198.563 39.4979 198.359 39.8733C198.212 40.2175 197.861 40.4677 197.48 40.5929C197.187 40.718 196.602 40.7493 196.192 40.7493C195.87 40.7493 195.05 40.7493 194.757 40.7493C194.172 40.7493 193.528 40.6242 193.147 40.28C192.737 39.8733 192.591 39.404 192.591 37.9022V33.2092ZM175.054 28.8603L176.342 27.5775C177.689 28.4223 179.358 29.7363 180.148 30.6436L178.802 32.0828C178.04 31.1129 176.43 29.7676 175.054 28.8603Z" fill="#333333"/>
<path d="M210.713 25.4187H220.784V27.6088H210.713V25.4187ZM211.065 34.2729H220.492V36.463H211.065V34.2729ZM210.157 45.4111C212.88 44.6915 216.979 43.4713 220.931 42.2511L221.224 44.3473C217.535 45.5362 213.612 46.7564 210.743 47.695L210.157 45.4111ZM224.181 32.1767V35.3367H233.783V32.1767H224.181ZM224.181 37.2452V40.4052H233.783V37.2452H224.181ZM224.181 27.1708V30.2995H233.783V27.1708H224.181ZM222.131 25.1684H235.921V42.4388H222.131V25.1684ZM229.802 41.4689H231.91V49.4158C231.91 50.198 232.056 50.3232 232.759 50.3232C233.081 50.3232 234.603 50.3232 235.042 50.3232C235.716 50.3232 235.833 49.8539 235.921 46.6313C236.36 47.0067 237.238 47.3822 237.794 47.5073C237.619 51.3869 237.062 52.3881 235.276 52.3881C234.837 52.3881 232.847 52.3881 232.437 52.3881C230.299 52.3881 229.802 51.6998 229.802 49.4471V41.4689ZM224.825 41.9382H226.962C226.435 47.2257 224.942 50.8238 219.028 52.7948C218.794 52.2004 218.208 51.2931 217.769 50.855C223.156 49.2907 224.356 46.2871 224.825 41.9382ZM214.783 26.2947H216.891V44.7228L214.783 45.0982V26.2947Z" fill="#333333"/>
</svg>
